HIERARCHY
ROOT hip
{
  OFFSET 0 0 0
  CHANNELS 6 Xposition Yposition Zposition Zrotation Yrotation Xrotation
  JOINT abdomen
  {
    OFFSET 0 20.6881 -0.73152
    CHANNELS 3 Zrotation Xrotation Yrotation
    JOINT chest
    {
      OFFSET 0 11.7043 -0.48768
      CHANNELS 3 Zrotation Xrotation Yrotation
      JOINT neck
      {
        OFFSET 0 22.1894 -2.19456
        CHANNELS 3 Zrotation Xrotation Yrotation
        JOINT head
        {
          OFFSET -0.24384 7.07133 1.2192
          CHANNELS 3 Zrotation Xrotation Yrotation
          JOINT leftEye
          {
            OFFSET 4.14528 8.04674 8.04672
            CHANNELS 3 Zrotation Xrotation Yrotation
            End Site
            {
              OFFSET 1 0 0
            }
          }
          JOINT rightEye
          {
            OFFSET -3.6576 8.04674 8.04672
            CHANNELS 3 Zrotation Xrotation Yrotation
            End Site
            {
              OFFSET 1 0 0
            }
          }
        }
      }
      JOINT rCollar
      {
        OFFSET -2.68224 19.2634 -4.8768
        CHANNELS 3 Zrotation Xrotation Yrotation
        JOINT rShldr
        {
          OFFSET -8.77824 -1.95073 1.46304
          CHANNELS 3 Zrotation Xrotation Yrotation
          JOINT rForeArm
          {
            OFFSET -28.1742 -1.7115 0.48768
            CHANNELS 3 Zrotation Xrotation Yrotation
            JOINT rHand
            {
              OFFSET -22.5879 0.773209 7.07136
              CHANNELS 3 Zrotation Xrotation Yrotation
              JOINT rThumb1
              {
                OFFSET -1.2192 -0.487915 3.41376
                CHANNELS 3 Zrotation Xrotation Yrotation
                JOINT rThumb2
                {
                  OFFSET -3.37035 -0.52449 3.41376
                  CHANNELS 3 Zrotation Xrotation Yrotation
                  End Site
                  {
                    OFFSET -1.78271 -1.18214 1.43049
                  }
                }
              }
              JOINT rIndex1
              {
                OFFSET -7.75947 0.938293 5.60832
                CHANNELS 3 Zrotation Xrotation Yrotation
                JOINT rIndex2
                {
                  OFFSET -2.54057 -0.884171 1.56538
                  CHANNELS 3 Zrotation Xrotation Yrotation
                  End Site
                  {
                    OFFSET -1.62519 -0.234802 1.16502
                  }
                }
              }
              JOINT rMid1
              {
                OFFSET -8.24714 1.18213 3.41376
                CHANNELS 3 Zrotation Xrotation Yrotation
                JOINT rMid2
                {
                  OFFSET -3.10165 -0.590103 1.0647
                  CHANNELS 3 Zrotation Xrotation Yrotation
                  End Site
                  {
                    OFFSET -2.48547 -0.328903 0.83742
                  }
                }
              }
              JOINT rRing1
              {
                OFFSET -8.82822 0.546677 1.51678
                CHANNELS 3 Zrotation Xrotation Yrotation
                JOINT rRing2
                {
                  OFFSET -2.60934 -0.819778 -0.0198488
                  CHANNELS 3 Zrotation Xrotation Yrotation
                  End Site
                  {
                    OFFSET -2.33842 -0.294052 0.168128
                  }
                }
              }
              JOINT rPinky1
              {
                OFFSET -8.27202 -0.0477905 -0.4584
                CHANNELS 3 Zrotation Xrotation Yrotation
                JOINT rPinky2
                {
                  OFFSET -1.82734 -0.647385 -0.700984
                  CHANNELS 3 Zrotation Xrotation Yrotation
                  End Site
                  {
                    OFFSET -1.69225 -0.51767 -0.607171
                  }
                }
              }
            }
          }
        }
      }
      JOINT lCollar
      {
        OFFSET 2.68224 19.2634 -4.8768
        CHANNELS 3 Zrotation Xrotation Yrotation
        JOINT lShldr
        {
          OFFSET 8.77824 -1.95073 1.46304
          CHANNELS 3 Zrotation Xrotation Yrotation
          JOINT lForeArm
          {
            OFFSET 28.1742 -1.7115 0.48768
            CHANNELS 3 Zrotation Xrotation Yrotation
            JOINT lHand
            {
              OFFSET 22.5879 0.773209 7.07136
              CHANNELS 3 Zrotation Xrotation Yrotation
              JOINT lThumb1
              {
                OFFSET 1.2192 -0.487915 3.41376
                CHANNELS 3 Zrotation Xrotation Yrotation
                JOINT lThumb2
                {
                  OFFSET 3.37035 -0.52449 3.41376
                  CHANNELS 3 Zrotation Xrotation Yrotation
                  End Site
                  {
                    OFFSET 1.78271 -1.18214 1.43049
                  }
                }
              }
              JOINT lIndex1
              {
                OFFSET 7.75947 0.938293 5.60832
                CHANNELS 3 Zrotation Xrotation Yrotation
                JOINT lIndex2
                {
                  OFFSET 2.54057 -0.884171 1.56538
                  CHANNELS 3 Zrotation Xrotation Yrotation
                  End Site
                  {
                    OFFSET 1.62519 -0.234802 1.16502
                  }
                }
              }
              JOINT lMid1
              {
                OFFSET 8.24714 1.18213 3.41376
                CHANNELS 3 Zrotation Xrotation Yrotation
                JOINT lMid2
                {
                  OFFSET 3.10165 -0.590103 1.0647
                  CHANNELS 3 Zrotation Xrotation Yrotation
                  End Site
                  {
                    OFFSET 2.48547 -0.328903 0.83742
                  }
                }
              }
              JOINT lRing1
              {
                OFFSET 8.82822 0.546677 1.51678
                CHANNELS 3 Zrotation Xrotation Yrotation
                JOINT lRing2
                {
                  OFFSET 2.60934 -0.819778 -0.0198488
                  CHANNELS 3 Zrotation Xrotation Yrotation
                  End Site
                  {
                    OFFSET 2.33842 -0.294052 0.168128
                  }
                }
              }
              JOINT lPinky1
              {
                OFFSET 8.27202 -0.0477905 -0.4584
                CHANNELS 3 Zrotation Xrotation Yrotation
                JOINT lPinky2
                {
                  OFFSET 1.82734 -0.647385 -0.700984
                  CHANNELS 3 Zrotation Xrotation Yrotation
                  End Site
                  {
                    OFFSET 1.69225 -0.51767 -0.607171
                  }
                }
              }
            }
          }
        }
      }
    }
  }
  JOINT rButtock
  {
    OFFSET -8.77824 4.35084 1.2192
    CHANNELS 3 Zrotation Xrotation Yrotation
    JOINT rThigh
    {
      OFFSET 0 -1.70687 -2.19456
      CHANNELS 3 Zrotation Xrotation Yrotation
      JOINT rShin
      {
        OFFSET 0 -36.8199 0.73152
        CHANNELS 3 Zrotation Xrotation Yrotation
        JOINT rFoot
        {
          OFFSET 0.73152 -45.1104 -5.12064
          CHANNELS 3 Zrotation Xrotation Yrotation
          End Site
          {
            OFFSET -1.1221 -3.69964 12.103
          }
        }
      }
    }
  }
  JOINT lButtock
  {
    OFFSET 8.77824 4.35084 1.2192
    CHANNELS 3 Zrotation Xrotation Yrotation
    JOINT lThigh
    {
      OFFSET 0 -1.70687 -2.19456
      CHANNELS 3 Zrotation Xrotation Yrotation
      JOINT lShin
      {
        OFFSET 0 -36.8199 0.73152
        CHANNELS 3 Zrotation Xrotation Yrotation
        JOINT lFoot
        {
          OFFSET -0.73152 -45.1104 -5.12064
          CHANNELS 3 Zrotation Xrotation Yrotation
          End Site
          {
            OFFSET 1.1221 -3.69964 12.103
          }
        }
      }
    }
  }
}
MOTION
Frames:	4
Frame Time:	0.00833333
0.02204 60.906006 -0.005996 -1.6961 -1.4229 365.148 -4.25127 9.23553 -3.43422 3.86493 -10.421 -0.777123 1.58378 11.5644 8.88268 3.60536 -22.0433 18.1514 -0.0 0.0 0.0 -0.0 0.0 0.0 0.0 -0.0 0.0 111.174 42.752 -61.8191 -27.6545 -41.9469 87.4872 -21.9882 -73.8325 -28.997599 -0.0 0.0 0.0 -0.0 0.0 0.0 -0.0 0.0 0.0 7.73091 5.47488 0.417314 -0.0 0.0 0.0 2.90554 0.965183 0.102902 -0.0 0.0 0.0 10.2786 0.731801 0.025912 -0.0 0.0 0.0 2.22167 -0.733487 -0.20892 0.0 -0.0 0.0 -55.6092 -20.8882 -81.3199 27.7207 -29.1476 -65.8909 14.9459 -69.0854 21.5771 -0.0 0.0 -0.0 -0.0 0.0 -0.0 -0.0 0.0 -0.0 -7.73091 5.47488 -0.417314 -0.0 0.0 -0.0 -2.90554 0.965183 -0.102902 -0.0 0.0 -0.0 -10.2786 0.731801 -0.025912 -0.0 0.0 -0.0 -2.22167 -0.733487 0.20892 -0.0 0.0 -0.0 -35.9847 -51.0641 -24.1131 -8.82346 83.7847 9.26421 -0.726346 -25.7538 -0.402336 0.0 0.0 0.0 51.1914 -44.6441 43.1079 7.97086 83.4622 -8.75769 2.51957 -25.6441 4.05065
0.06481 60.751 0.0 -1.6541 -1.4258 365.114 -4.33665 9.1872 -3.46541 3.88526 -10.4114 -0.785808 1.60533 11.5505 8.89812 3.60889 -21.932 18.1739 -0.0 0.0 0.0 -0.0 0.0 0.0 0.0 -0.0 0.0 111.176 42.6909 -61.822296 -27.6522 -41.9558 87.504 -22.0147 -73.8458 -29.0251 -0.0 0.0 0.0 -0.0 0.0 0.0 -0.0 0.0 0.0 7.73091 5.47488 0.417314 -0.0 0.0 0.0 2.90554 0.965183 0.102902 -0.0 0.0 0.0 10.2786 0.731801 0.025912 -0.0 0.0 0.0 2.22167 -0.733487 -0.20892 0.0 -0.0 0.0 -55.6105 -20.9456 -81.3661 27.6827 -28.9715 -65.6099 14.7834 -68.9373 21.4031 -0.0 0.0 -0.0 -0.0 0.0 -0.0 -0.0 0.0 -0.0 -7.73091 5.47488 -0.417314 -0.0 0.0 -0.0 -2.90554 0.965183 -0.102902 -0.0 0.0 -0.0 -10.2786 0.731801 -0.025912 -0.0 0.0 -0.0 -2.22167 -0.733487 0.20892 -0.0 0.0 -0.0 -36.3125 -51.2107 -24.346 -9.32346 84.0816 9.76375 -0.678214 -25.8215 -0.325899 0.0 0.0 0.0 51.4975 -44.6407 43.4836 8.43268 83.7804 -9.22176 2.50912 -25.7444 4.02084
0.11212 60.6161 0.020003 -1.5726 -1.3209 365.006 -4.40352 9.159 -3.52193 3.89812 -10.4084 -0.802175 1.62147 11.5366 8.906 3.61137 -21.8275 18.1821 -0.0 0.0 0.0 -0.0 0.0 0.0 0.0 -0.0 0.0 111.204 42.6239 -61.8442 -27.6484 -41.9701 87.5308 -21.8735 -73.7748 -28.878098 -0.0 0.0 0.0 -0.0 0.0 0.0 -0.0 0.0 0.0 7.73091 5.47488 0.417314 -0.0 0.0 0.0 2.90554 0.965183 0.102902 -0.0 0.0 0.0 10.2786 0.731801 0.025912 -0.0 0.0 0.0 2.22167 -0.733487 -0.20892 0.0 -0.0 0.0 -55.5992 -21.0077 -81.4196 27.6411 -28.783302 -65.3082 14.755899 -68.9119 21.3736 -0.0 0.0 -0.0 -0.0 0.0 -0.0 -0.0 0.0 -0.0 -7.73091 5.47488 -0.417314 -0.0 0.0 -0.0 -2.90554 0.965183 -0.102902 -0.0 0.0 -0.0 -10.2786 0.731801 -0.025912 -0.0 0.0 -0.0 -2.22167 -0.733487 0.20892 -0.0 0.0 -0.0 -36.6797 -51.3106 -24.6389 -9.87933 84.3791 10.3185 -0.612998 -25.8875 -0.219798 0.0 0.0 0.0 51.7728 -44.6696 43.8055 8.9409 84.0962 -9.73226 2.51536 -25.8416 4.02214
0.13531 60.4255 0.011992 -1.5672 -1.4877 365.047 -4.46 9.14434 -3.59209 3.90471 -10.4081 -0.822958 1.63495 11.5226 8.90877 3.61133 -21.7281 18.1803 -0.0 0.0 0.0 -0.0 0.0 0.0 0.0 -0.0 -0.0 111.248 42.5544 -61.8764 -27.6437 -41.988 87.5644 -21.6301 -73.6504 -28.6246 -0.0 0.0 0.0 -0.0 0.0 0.0 -0.0 0.0 0.0 7.73091 5.47488 0.417314 -0.0 0.0 0.0 2.90554 0.965183 0.102902 -0.0 0.0 0.0 10.2786 0.731801 0.025912 -0.0 0.0 0.0 2.22167 -0.733487 -0.20892 0.0 -0.0 -0.0 -55.5773 -21.0745 -81.4777 27.5962 -28.5857 -64.9923 14.817899 -68.9687 21.4401 -0.0 0.0 -0.0 -0.0 0.0 -0.0 -0.0 0.0 -0.0 -7.73091 5.47488 -0.417314 -0.0 0.0 -0.0 -2.90554 0.965183 -0.102902 -0.0 0.0 -0.0 -10.2786 0.731801 -0.025912 -0.0 0.0 -0.0 -2.22167 -0.733487 0.20892 -0.0 0.0 -0.0 -37.0756 -51.3784 -24.9708 -10.4998 84.6769 10.9373 -0.537867 -25.9524 -0.096696 0.0 0.0 0.0 52.0219 -44.7153 44.0898 9.5006 84.4084 -10.2945 2.53604 -25.9355 4.04994
